<?xml version="1.0" encoding="UTF-8" standalone="no"?>
<!-- Created with Inkscape (http://www.inkscape.org/) -->

<svg
   xmlns:dc="http://purl.org/dc/elements/1.1/"
   xmlns:cc="http://creativecommons.org/ns#"
   xmlns:rdf="http://www.w3.org/1999/02/22-rdf-syntax-ns#"
   xmlns:svg="http://www.w3.org/2000/svg"
   xmlns="http://www.w3.org/2000/svg"
   xmlns:xlink="http://www.w3.org/1999/xlink"
   xmlns:sodipodi="http://sodipodi.sourceforge.net/DTD/sodipodi-0.dtd"
   xmlns:inkscape="http://www.inkscape.org/namespaces/inkscape"
   id="svg2"
   sodipodi:version="0.32"
   inkscape:version="0.48.2 r9819"
   width="150"
   height="150"
   version="1.0"
   sodipodi:docname="light-on.svg"
   inkscape:output_extension="org.inkscape.output.svg.inkscape"
   inkscape:export-filename="/home/igjav/Escritorio/mine bombille.png"
   inkscape:export-xdpi="19.286301"
   inkscape:export-ydpi="19.286301">
  <metadata
     id="metadata7">
    <rdf:RDF>
      <cc:Work
         rdf:about="">
        <dc:format>image/svg+xml</dc:format>
        <dc:type
           rdf:resource="http://purl.org/dc/dcmitype/StillImage" />
      </cc:Work>
    </rdf:RDF>
  </metadata>
  <defs
     id="defs5">
    <linearGradient
       id="linearGradient3210">
      <stop
         style="stop-color:#ffdc00;stop-opacity:1;"
         offset="0"
         id="stop3212" />
      <stop
         id="stop3218"
         offset="0.5"
         style="stop-color:#ecd128;stop-opacity:0;" />
      <stop
         style="stop-color:#ffdc00;stop-opacity:1;"
         offset="1"
         id="stop3214" />
    </linearGradient>
    <linearGradient
       id="linearGradient3180">
      <stop
         style="stop-color:#ffffff;stop-opacity:0;"
         offset="0"
         id="stop3182" />
      <stop
         style="stop-color:#ffffff;stop-opacity:1;"
         offset="1"
         id="stop3184" />
    </linearGradient>
    <linearGradient
       id="linearGradient3239">
      <stop
         style="stop-color:#000000;stop-opacity:1;"
         offset="0"
         id="stop3241" />
      <stop
         id="stop3247"
         offset="0.5"
         style="stop-color:#ffffff;stop-opacity:1;" />
      <stop
         style="stop-color:#000000;stop-opacity:1;"
         offset="1"
         id="stop3243" />
    </linearGradient>
    <linearGradient
       id="linearGradient3231">
      <stop
         style="stop-color:#ffb6b6;stop-opacity:1;"
         offset="0"
         id="stop3233" />
      <stop
         style="stop-color:#000000;stop-opacity:0;"
         offset="1"
         id="stop3235" />
    </linearGradient>
    <linearGradient
       inkscape:collect="always"
       id="linearGradient3211">
      <stop
         style="stop-color:#ffffff;stop-opacity:1;"
         offset="0"
         id="stop3213" />
      <stop
         style="stop-color:#ffffff;stop-opacity:0;"
         offset="1"
         id="stop3215" />
    </linearGradient>
    <linearGradient
       id="linearGradient3167">
      <stop
         style="stop-color:#fffc9f;stop-opacity:1;"
         offset="0"
         id="stop3169" />
      <stop
         id="stop3205"
         offset="0.5"
         style="stop-color:#fff500;stop-opacity:1;" />
      <stop
         style="stop-color:#ff9300;stop-opacity:1;"
         offset="1"
         id="stop3171" />
    </linearGradient>
    <linearGradient
       id="linearGradient3156">
      <stop
         style="stop-color:#ffff00;stop-opacity:0;"
         offset="0"
         id="stop3158" />
      <stop
         style="stop-color:#ffffff;stop-opacity:0.2027972;"
         offset="1"
         id="stop3160" />
    </linearGradient>
    <inkscape:perspective
       sodipodi:type="inkscape:persp3d"
       inkscape:vp_x="0 : 526.18109 : 1"
       inkscape:vp_y="0 : 1000 : 0"
       inkscape:vp_z="744.09448 : 526.18109 : 1"
       inkscape:persp3d-origin="372.04724 : 350.78739 : 1"
       id="perspective9" />
    <radialGradient
       inkscape:collect="always"
       xlink:href="#linearGradient3167"
       id="radialGradient3207"
       gradientUnits="userSpaceOnUse"
       gradientTransform="matrix(0.9439655,0,0,1.1768095,-18.283565,-19.26294)"
       cx="100"
       cy="65.093796"
       fx="100"
       fy="65.093796"
       r="46.963562" />
    <linearGradient
       inkscape:collect="always"
       xlink:href="#linearGradient3211"
       id="linearGradient3217"
       x1="198.58299"
       y1="23.32316"
       x2="198.58299"
       y2="63.165371"
       gradientUnits="userSpaceOnUse" />
    <linearGradient
       inkscape:collect="always"
       xlink:href="#linearGradient3211"
       id="linearGradient3221"
       gradientUnits="userSpaceOnUse"
       x1="203.13518"
       y1="3.3468275"
       x2="203.08333"
       y2="39.433189" />
    <linearGradient
       inkscape:collect="always"
       xlink:href="#linearGradient3239"
       id="linearGradient3245"
       x1="147.52083"
       y1="139.27126"
       x2="226.16341"
       y2="139.27126"
       gradientUnits="userSpaceOnUse"
       gradientTransform="translate(-112.32426,-13.287429)" />
    <linearGradient
       inkscape:collect="always"
       xlink:href="#linearGradient3180"
       id="linearGradient3190"
       gradientUnits="userSpaceOnUse"
       x1="109.95509"
       y1="117.62206"
       x2="109.9551"
       y2="38.779655" />
    <linearGradient
       inkscape:collect="always"
       xlink:href="#linearGradient3210"
       id="linearGradient3216"
       x1="87.095451"
       y1="107.09915"
       x2="116.08683"
       y2="107.09915"
       gradientUnits="userSpaceOnUse"
       gradientTransform="translate(-26.32426,-25.287429)" />
  </defs>
  <sodipodi:namedview
     inkscape:window-height="1002"
     inkscape:window-width="1680"
     inkscape:pageshadow="2"
     inkscape:pageopacity="0.0"
     guidetolerance="10.0"
     gridtolerance="10.0"
     objecttolerance="10.0"
     borderopacity="1.0"
     bordercolor="#666666"
     pagecolor="#ffffff"
     id="base"
     showgrid="false"
     showguides="true"
     inkscape:guide-bbox="true"
     inkscape:zoom="3.7228016"
     inkscape:cx="105.97181"
     inkscape:cy="101.79687"
     inkscape:window-x="0"
     inkscape:window-y="0"
     inkscape:current-layer="svg2"
     inkscape:window-maximized="0" />
  <path
     style="fill:url(#radialGradient3207);fill-opacity:1;stroke:none"
     d="m 120.44497,45.797596 c 0,12.068019 -8.00162,26.744129 -15.82328,40.427539 C 96.80003,99.908545 103.75782,112.20423 76.9227,112.59923 48.92549,113.00537 55.42594,97.884245 47.19942,84.200845 38.97291,70.517435 31.781,57.865615 31.781,45.797596 c 0,-24.136034 19.86073,-43.7246997 44.33199,-43.7246997 24.47125,0 44.33198,19.5886657 44.33198,43.7246997 z"
     id="path3164"
     sodipodi:nodetypes="csssssc"
     inkscape:connector-curvature="0" />
  <path
     sodipodi:type="arc"
     style="fill:url(#linearGradient3217);fill-opacity:1;stroke:none"
     id="path3209"
     sodipodi:cx="198.58299"
     sodipodi:cy="56.680161"
     sodipodi:rx="37.449394"
     sodipodi:ry="38.46154"
     d="m 236.03239,56.680161 a 37.449394,38.46154 0 1 1 -74.89879,0 37.449394,38.46154 0 1 1 74.89879,0 z"
     transform="matrix(1.0864864,0,0,1.0263158,-139.2399,-15.3863)" />
  <path
     sodipodi:type="arc"
     style="fill:url(#linearGradient3221);fill-opacity:1;stroke:none"
     id="path3219"
     sodipodi:cx="198.58299"
     sodipodi:cy="56.680161"
     sodipodi:rx="37.449394"
     sodipodi:ry="38.46154"
     d="m 236.03239,56.680161 a 37.449394,38.46154 0 1 1 -74.89879,0 37.449394,38.46154 0 1 1 74.89879,0 z"
     transform="matrix(0.8864864,0,0,-0.7894737,-99.118416,105.72728)" />
  <path
     style="fill:url(#linearGradient3245);fill-opacity:1;fill-rule:evenodd;stroke:none"
     d="m 55.80116,106.09575 0.222673,10.5766 3.186257,4.57409 -2.5088,5.57341 3.51014,5.90136 -3.363033,4.98026 4.993336,5.31415 15.071597,3.07295 16.43406,-2.84951 4.62396,-4.91887 -2.21455,-6.15629 2.31716,-4.58692 -3.81921,-6.45144 2.92108,-4.36482 0.17881,-11.27226 c 0,0 -7.52064,3.28317 -19.62223,3.6963 -12.10863,0.41337 -21.93125,-3.08901 -21.93125,-3.08901 z"
     id="path3225"
     sodipodi:nodetypes="ccccccccccccccczc"
     inkscape:connector-curvature="0" />
  <path
     style="fill:#000000;fill-opacity:1;fill-rule:evenodd;stroke:none"
     d="m 64.97938,141.77331 25.07693,0.40486 -13.36033,6.88259 -11.7166,-7.28745 z"
     id="path3249"
     sodipodi:nodetypes="cccc"
     inkscape:connector-curvature="0" />
  <path
     style="fill:#666666;fill-opacity:1;fill-rule:evenodd;stroke:none"
     d="m 57.260063,117.34348 19.865067,2.92375 18.80306,-2.82256 -3.13769,4.49194 -15.87717,2.12554 -16.843557,-2.59312 -2.80971,-4.12555 z"
     id="path3251"
     sodipodi:nodetypes="ccccccc"
     inkscape:connector-curvature="0" />
  <path
     style="fill:#4d4d4d;fill-opacity:1;fill-rule:evenodd;stroke:none"
     d="m 58.462493,128.38869 18.650487,2.60728 19.62556,-2.20242 -2.09988,4.32797 -17.57426,2.57892 -15.81785,-2.60457 -2.784057,-4.70718 z"
     id="path3253"
     sodipodi:nodetypes="ccccccc"
     inkscape:connector-curvature="0" />
  <path
     style="fill:#4d4d4d;fill-opacity:1;fill-rule:evenodd;stroke:none"
     d="m 57.61501,137.61541 20.01619,3.82185 19.40891,-3.41699 -4.55189,4.63022 -15.10803,2.68153 -14.80571,-2.9467 -4.95947,-4.76991 z"
     id="path3255"
     sodipodi:nodetypes="ccccccc"
     inkscape:connector-curvature="0" />
  <path
     style="fill:#333333;fill-opacity:1;fill-rule:evenodd;stroke:none"
     d="m 55.87007,106.72877 c 0,0 6.12549,3.25237 20.24292,3.4413 14.02906,0.18774 21.01555,-2.83401 21.01555,-2.83401 l 0.82115,-2.80836 c 0,0 -3.84105,3.66822 -21.8367,3.41565 -17.907276,-0.25133 -21.25506,-3.84615 -21.25506,-3.84615 l 1.01214,2.63157 z"
     id="path3257"
     sodipodi:nodetypes="czcczcc"
     inkscape:connector-curvature="0" />
  <path
     sodipodi:type="arc"
     style="fill:url(#linearGradient3190);fill-opacity:1;stroke:none"
     id="path2408"
     sodipodi:cx="113.13708"
     sodipodi:cy="82.973831"
     sodipodi:rx="35.355339"
     sodipodi:ry="38.890873"
     d="m 148.49242,82.973831 a 35.355339,38.890873 0 1 1 -70.710682,0 35.355339,38.890873 0 1 1 70.710682,0 z"
     transform="matrix(0.96,0,0,0.7,-32.405378,-21.962036)" />
  <path
     sodipodi:type="arc"
     style="fill:#b77300;fill-opacity:0.56603771;stroke:none"
     id="path3196"
     sodipodi:cx="103.59114"
     sodipodi:cy="119.74338"
     sodipodi:rx="17.324116"
     sodipodi:ry="4.2426405"
     d="m 120.91526,119.74338 a 17.324116,4.2426405 0 1 1 -34.648235,0 17.324116,4.2426405 0 1 1 34.648235,0 z"
     transform="translate(-27.031367,-17.277021)" />
  <path
     style="fill:url(#linearGradient3216);fill-opacity:1;fill-rule:evenodd;stroke:none"
     d="m 65.720942,101.52703 c 0,0 4.949748,-7.778175 4.596194,-13.435035 0.0906,-7.10207 -4.703174,-17.52695 -9.545942,-27.22362 1.397904,-4.21905 6.717515,3.18198 14.495686,3.18198 8.87175,-1.23111 12.32574,-7.16865 14.49569,-2.12132 -2.12132,2.82843 -7.95723,18.33 -7.77817,26.16296 0.19409,8.49043 3.18198,10.6066 4.94975,13.788585 1.30764,2.35374 -16.26346,3.53553 -21.213208,-0.35355 z"
     id="path3200"
     sodipodi:nodetypes="cccccssc"
     inkscape:connector-curvature="0" />
  <path
     style="fill:#cba612;fill-opacity:1;fill-rule:evenodd;stroke:none"
     d="m 64.538961,63.696805 -8.485281,-18.031222 9.899495,18.031222 -1.414214,0 z"
     id="path3206"
     sodipodi:nodetypes="cccc"
     inkscape:connector-curvature="0" />
  <path
     style="fill:#f6c24a;fill-opacity:1;fill-rule:evenodd;stroke:none"
     d="m 85.04506,62.989695 10.25305,-18.384771 -8.13173,18.031221 -2.12132,0.35355 z"
     id="path3208"
     sodipodi:nodetypes="cccc"
     inkscape:connector-curvature="0" />
  <path
     style="fill:#ad7b16;fill-opacity:1;fill-rule:evenodd;stroke:none"
     d="m 56.407234,44.837156 4.24264,-4.242641 4.242641,6.010408 4.949747,-5.656854 5.303298,6.010407 5.65686,-6.010407 5.3033,5.303301 4.94975,-5.303301 4.24264,4.596194 -1.41422,2.474874 -3.18198,-3.535534 -4.59619,4.949747 -5.3033,-5.656854 -5.65686,6.363961 -5.656851,-5.303301 -5.656854,4.949748 -3.889088,-5.303301 -3.535533,4.596194 -2.828428,-1.414214 2.828428,-2.828427 z"
     id="path3204"
     inkscape:connector-curvature="0" />
</svg>
