<?xml version="1.0" encoding="UTF-8" standalone="no"?>
<!-- Created with Inkscape (http://www.inkscape.org/) -->

<svg
   xmlns:dc="http://purl.org/dc/elements/1.1/"
   xmlns:cc="http://creativecommons.org/ns#"
   xmlns:rdf="http://www.w3.org/1999/02/22-rdf-syntax-ns#"
   xmlns:svg="http://www.w3.org/2000/svg"
   xmlns="http://www.w3.org/2000/svg"
   xmlns:sodipodi="http://sodipodi.sourceforge.net/DTD/sodipodi-0.dtd"
   xmlns:inkscape="http://www.inkscape.org/namespaces/inkscape"
   width="20"
   height="20"
   id="svg2"
   version="1.1"
   inkscape:version="0.48.2 r9819"
   sodipodi:docname="temp-red.svg">
  <defs
     id="defs4" />
  <sodipodi:namedview
     id="base"
     pagecolor="#ffffff"
     bordercolor="#666666"
     borderopacity="1.0"
     inkscape:pageopacity="0.0"
     inkscape:pageshadow="2"
     inkscape:zoom="20"
     inkscape:cx="8.7385621"
     inkscape:cy="15"
     inkscape:document-units="px"
     inkscape:current-layer="layer1"
     showgrid="true"
     inkscape:snap-grids="true"
     inkscape:window-width="1021"
     inkscape:window-height="885"
     inkscape:window-x="604"
     inkscape:window-y="54"
     inkscape:window-maximized="0">
    <inkscape:grid
       type="xygrid"
       id="grid3755"
       empspacing="5"
       visible="true"
       enabled="true"
       snapvisiblegridlinesonly="true"
       spacingx="1px"
       spacingy="1px" />
  </sodipodi:namedview>
  <metadata
     id="metadata7">
    <rdf:RDF>
      <cc:Work
         rdf:about="">
        <dc:format>image/svg+xml</dc:format>
        <dc:type
           rdf:resource="http://purl.org/dc/dcmitype/StillImage" />
        <dc:title></dc:title>
      </cc:Work>
    </rdf:RDF>
  </metadata>
  <g
     inkscape:label="Layer 1"
     inkscape:groupmode="layer"
     id="layer1"
     transform="translate(0,-1032.3622)">
    <path
       transform="translate(0,1032.3622)"
       sodipodi:nodetypes="zzcccczz"
       inkscape:connector-curvature="0"
       id="path3765"
       d="M 10,19 C 8.55,19 7,18 7,16 7,14 9,13 9,13 l 0,-6 2,0 0,6 c 0,0 2,1 2,3 0,2 -1.55,3 -3,3 z"
       style="fill:#0000ff;stroke:none;stroke-width:1px;stroke-linecap:butt;stroke-linejoin:miter;stroke-opacity:1;fill-opacity:1" />
    <path
       style="fill:none;stroke:#000000;stroke-width:1px;stroke-linecap:butt;stroke-linejoin:miter;stroke-opacity:1"
       d="M 10,19 C 8.55,19 7,18 7,16 7,14 9,13 9,13 L 9,2 c 0,-1 2,-1 2,0 l 0,11 c 0,0 2,1 2,3 0,2 -1.55,3 -3,3 z"
       id="path3757"
       inkscape:connector-curvature="0"
       sodipodi:nodetypes="zzcccczz"
       transform="translate(0,1032.3622)" />
    <path
       style="fill:none;stroke:#000000;stroke-width:1px;stroke-linecap:butt;stroke-linejoin:miter;stroke-opacity:1"
       d="m 9,10 4,0"
       id="path3759"
       inkscape:connector-curvature="0"
       transform="translate(0,1032.3622)" />
    <path
       style="fill:none;stroke:#000000;stroke-width:1px;stroke-linecap:butt;stroke-linejoin:miter;stroke-opacity:1"
       d="m 9,5 4,0"
       id="path3761"
       inkscape:connector-curvature="0"
       transform="translate(0,1032.3622)" />
  </g>
</svg>
