<?xml version="1.0" encoding="UTF-8" standalone="no"?>
<!-- Created with Inkscape (http://www.inkscape.org/) -->

<svg
   xmlns:dc="http://purl.org/dc/elements/1.1/"
   xmlns:cc="http://creativecommons.org/ns#"
   xmlns:rdf="http://www.w3.org/1999/02/22-rdf-syntax-ns#"
   xmlns:svg="http://www.w3.org/2000/svg"
   xmlns="http://www.w3.org/2000/svg"
   xmlns:xlink="http://www.w3.org/1999/xlink"
   xmlns:sodipodi="http://sodipodi.sourceforge.net/DTD/sodipodi-0.dtd"
   xmlns:inkscape="http://www.inkscape.org/namespaces/inkscape"
   id="svg2"
   sodipodi:version="0.32"
   inkscape:version="0.48.2 r9819"
   width="200"
   height="200"
   version="1.0"
   sodipodi:docname="lamp-off.svg"
   inkscape:output_extension="org.inkscape.output.svg.inkscape"
   inkscape:export-filename="/home/igjav/Escritorio/mine bombille.png"
   inkscape:export-xdpi="19.286301"
   inkscape:export-ydpi="19.286301">
  <metadata
     id="metadata7">
    <rdf:RDF>
      <cc:Work
         rdf:about="">
        <dc:format>image/svg+xml</dc:format>
        <dc:type
           rdf:resource="http://purl.org/dc/dcmitype/StillImage" />
      </cc:Work>
    </rdf:RDF>
  </metadata>
  <defs
     id="defs5">
    <linearGradient
       id="linearGradient3210">
      <stop
         style="stop-color:#b7b7b7;stop-opacity:1;"
         offset="0"
         id="stop3212" />
      <stop
         id="stop3218"
         offset="0.5"
         style="stop-color:#000000;stop-opacity:0;" />
      <stop
         style="stop-color:#b7b7b7;stop-opacity:1;"
         offset="1"
         id="stop3214" />
    </linearGradient>
    <linearGradient
       id="linearGradient3180">
      <stop
         style="stop-color:#ffffff;stop-opacity:0;"
         offset="0"
         id="stop3182" />
      <stop
         style="stop-color:#ffffff;stop-opacity:1;"
         offset="1"
         id="stop3184" />
    </linearGradient>
    <linearGradient
       id="linearGradient3239">
      <stop
         style="stop-color:#000000;stop-opacity:1;"
         offset="0"
         id="stop3241" />
      <stop
         id="stop3247"
         offset="0.5"
         style="stop-color:#ffffff;stop-opacity:1;" />
      <stop
         style="stop-color:#000000;stop-opacity:1;"
         offset="1"
         id="stop3243" />
    </linearGradient>
    <linearGradient
       id="linearGradient3231">
      <stop
         style="stop-color:#ffb6b6;stop-opacity:1;"
         offset="0"
         id="stop3233" />
      <stop
         style="stop-color:#000000;stop-opacity:0;"
         offset="1"
         id="stop3235" />
    </linearGradient>
    <linearGradient
       inkscape:collect="always"
       id="linearGradient3211">
      <stop
         style="stop-color:#ffffff;stop-opacity:1;"
         offset="0"
         id="stop3213" />
      <stop
         style="stop-color:#ffffff;stop-opacity:0;"
         offset="1"
         id="stop3215" />
    </linearGradient>
    <linearGradient
       id="linearGradient3167">
      <stop
         style="stop-color:#fffc9f;stop-opacity:1;"
         offset="0"
         id="stop3169" />
      <stop
         id="stop3205"
         offset="0.5"
         style="stop-color:#fff500;stop-opacity:1;" />
      <stop
         style="stop-color:#ff9300;stop-opacity:1;"
         offset="1"
         id="stop3171" />
    </linearGradient>
    <linearGradient
       id="linearGradient3156">
      <stop
         style="stop-color:#ffff00;stop-opacity:0;"
         offset="0"
         id="stop3158" />
      <stop
         style="stop-color:#ffffff;stop-opacity:0.2027972;"
         offset="1"
         id="stop3160" />
    </linearGradient>
    <inkscape:perspective
       sodipodi:type="inkscape:persp3d"
       inkscape:vp_x="0 : 526.18109 : 1"
       inkscape:vp_y="0 : 1000 : 0"
       inkscape:vp_z="744.09448 : 526.18109 : 1"
       inkscape:persp3d-origin="372.04724 : 350.78739 : 1"
       id="perspective9" />
    <linearGradient
       inkscape:collect="always"
       xlink:href="#linearGradient3211"
       id="linearGradient3217"
       x1="198.58299"
       y1="23.32316"
       x2="198.58299"
       y2="63.165371"
       gradientUnits="userSpaceOnUse" />
    <linearGradient
       inkscape:collect="always"
       xlink:href="#linearGradient3211"
       id="linearGradient3221"
       gradientUnits="userSpaceOnUse"
       x1="203.13518"
       y1="3.3468275"
       x2="203.08333"
       y2="39.433189" />
    <linearGradient
       inkscape:collect="always"
       xlink:href="#linearGradient3239"
       id="linearGradient3245"
       x1="147.52083"
       y1="139.27126"
       x2="226.16341"
       y2="139.27126"
       gradientUnits="userSpaceOnUse"
       gradientTransform="translate(-86,12)" />
    <linearGradient
       inkscape:collect="always"
       xlink:href="#linearGradient3180"
       id="linearGradient3190"
       gradientUnits="userSpaceOnUse"
       x1="109.95509"
       y1="117.62206"
       x2="109.9551"
       y2="38.779655" />
    <linearGradient
       inkscape:collect="always"
       xlink:href="#linearGradient3210"
       id="linearGradient3216"
       x1="87.095454"
       y1="107.09915"
       x2="116.08683"
       y2="107.09915"
       gradientUnits="userSpaceOnUse" />
  </defs>
  <sodipodi:namedview
     inkscape:window-height="1002"
     inkscape:window-width="1680"
     inkscape:pageshadow="2"
     inkscape:pageopacity="0.0"
     guidetolerance="10.0"
     gridtolerance="10.0"
     objecttolerance="10.0"
     borderopacity="1.0"
     bordercolor="#666666"
     pagecolor="#ffffff"
     id="base"
     showgrid="false"
     showguides="true"
     inkscape:guide-bbox="true"
     inkscape:zoom="4.92"
     inkscape:cx="78.154277"
     inkscape:cy="93.353843"
     inkscape:window-x="0"
     inkscape:window-y="0"
     inkscape:current-layer="svg2"
     inkscape:window-maximized="0">
    <sodipodi:guide
       orientation="1,0"
       position="103.23759,63.727999"
       id="guide2423" />
  </sodipodi:namedview>
  <path
     style="fill:#000000;fill-opacity:1;stroke:none;stroke-opacity:1"
     d="M 146.76923,71.085025 C 146.76923,83.153042 138.76761,97.829158 130.94595,111.51256 C 123.12429,125.19597 130.08208,137.49165 103.24696,137.88665 C 75.24975,138.29279 81.7502,123.17167 73.52368,109.48827 C 65.29717,95.804866 58.10526,83.153042 58.10526,71.085025 C 58.10526,46.948991 77.96599,27.360325 102.43725,27.360325 C 126.9085,27.360325 146.76923,46.948991 146.76923,71.085025 z"
     id="path3164"
     sodipodi:nodetypes="csssssc" />
  <path
     sodipodi:type="arc"
     style="fill:url(#linearGradient3217);fill-opacity:1;stroke:none;stroke-opacity:1"
     id="path3209"
     sodipodi:cx="198.58299"
     sodipodi:cy="56.680161"
     sodipodi:rx="37.449394"
     sodipodi:ry="38.46154"
     d="M 236.03239,56.680161 A 37.449394,38.46154 0 1 1 161.1336,56.680161 A 37.449394,38.46154 0 1 1 236.03239,56.680161 z"
     transform="matrix(1.0864864,0,0,1.0263158,-112.91564,9.9011294)" />
  <path
     sodipodi:type="arc"
     style="fill:url(#linearGradient3221);fill-opacity:1;stroke:none;stroke-opacity:1"
     id="path3219"
     sodipodi:cx="198.58299"
     sodipodi:cy="56.680161"
     sodipodi:rx="37.449394"
     sodipodi:ry="38.46154"
     d="M 236.03239,56.680161 A 37.449394,38.46154 0 1 1 161.1336,56.680161 A 37.449394,38.46154 0 1 1 236.03239,56.680161 z"
     transform="matrix(0.8864864,0,0,-0.7894737,-72.79416,131.0147)" />
  <path
     style="fill:url(#linearGradient3245);fill-opacity:1;fill-rule:evenodd;stroke:none;stroke-width:1.3047756px;stroke-linecap:butt;stroke-linejoin:miter;stroke-opacity:1"
     d="M 82.12542,131.38317 L 82.348093,141.95977 L 85.53435,146.53386 L 83.02555,152.10727 L 86.53569,158.00863 L 83.172657,162.98889 L 88.165993,168.30304 L 103.23759,171.37599 L 119.67165,168.52648 L 124.29561,163.60761 L 122.08106,157.45132 L 124.39822,152.8644 L 120.57901,146.41296 L 123.50009,142.04814 L 123.6789,130.77588 C 123.6789,130.77588 116.15826,134.05905 104.05667,134.47218 C 91.94804,134.88555 82.12542,131.38317 82.12542,131.38317 z"
     id="path3225"
     sodipodi:nodetypes="ccccccccccccccczc" />
  <path
     style="fill:#000000;fill-opacity:1;fill-rule:evenodd;stroke:none;stroke-width:1px;stroke-linecap:butt;stroke-linejoin:miter;stroke-opacity:1"
     d="M 91.30364,167.06073 L 116.38057,167.46559 L 103.02024,174.34818 L 91.30364,167.06073 z"
     id="path3249"
     sodipodi:nodetypes="cccc" />
  <path
     style="fill:#666666;fill-opacity:1;fill-rule:evenodd;stroke:none;stroke-width:1px;stroke-linecap:butt;stroke-linejoin:miter;stroke-opacity:1"
     d="M 83.584323,142.6309 L 103.44939,145.55465 L 122.25245,142.73209 L 119.11476,147.22403 L 103.23759,149.34957 L 86.394033,146.75645 L 83.584323,142.6309 z"
     id="path3251"
     sodipodi:nodetypes="ccccccc" />
  <path
     style="fill:#4d4d4d;fill-opacity:1;fill-rule:evenodd;stroke:none;stroke-width:1px;stroke-linecap:butt;stroke-linejoin:miter;stroke-opacity:1"
     d="M 84.786753,153.67611 L 103.43724,156.28339 L 123.0628,154.08097 L 120.96292,158.40894 L 103.38866,160.98786 L 87.57081,158.38329 L 84.786753,153.67611 z"
     id="path3253"
     sodipodi:nodetypes="ccccccc" />
  <path
     style="fill:#4d4d4d;fill-opacity:1;fill-rule:evenodd;stroke:none;stroke-width:1px;stroke-linecap:butt;stroke-linejoin:miter;stroke-opacity:1"
     d="M 83.93927,162.90283 L 103.95546,166.72468 L 123.36437,163.30769 L 118.81248,167.93791 L 103.70445,170.61944 L 88.89874,167.67274 L 83.93927,162.90283 z"
     id="path3255"
     sodipodi:nodetypes="ccccccc" />
  <path
     style="fill:#333333;fill-opacity:1;fill-rule:evenodd;stroke:none;stroke-width:1px;stroke-linecap:butt;stroke-linejoin:miter;stroke-opacity:1"
     d="M 82.19433,132.01619 C 82.19433,132.01619 88.31982,135.26856 102.43725,135.45749 C 116.46631,135.64523 123.4528,132.62348 123.4528,132.62348 L 124.27395,129.81512 C 124.27395,129.81512 120.4329,133.48334 102.43725,133.23077 C 84.529974,132.97944 81.18219,129.38462 81.18219,129.38462 L 82.19433,132.01619 z"
     id="path3257"
     sodipodi:nodetypes="czcczcc" />
  <path
     sodipodi:type="arc"
     style="fill:url(#linearGradient3190);fill-opacity:1;stroke:none;stroke-opacity:1"
     id="path2408"
     sodipodi:cx="113.13708"
     sodipodi:cy="82.973831"
     sodipodi:rx="35.355339"
     sodipodi:ry="38.890873"
     d="M 148.49242,82.973831 A 35.355339,38.890873 0 1 1 77.781738,82.973831 A 35.355339,38.890873 0 1 1 148.49242,82.973831 z"
     transform="matrix(0.96,0,0,0.7,-6.0811176,3.325393)" />
  <path
     sodipodi:type="arc"
     style="fill:#5c5c5c;fill-opacity:0.56603771;stroke:none;stroke-opacity:1"
     id="path3196"
     sodipodi:cx="103.59114"
     sodipodi:cy="119.74338"
     sodipodi:rx="17.324116"
     sodipodi:ry="4.2426405"
     d="M 120.91526,119.74338 A 17.324116,4.2426405 0 1 1 86.267025,119.74338 A 17.324116,4.2426405 0 1 1 120.91526,119.74338 z"
     transform="translate(-0.7071068,8.010408)" />
  <path
     style="fill:url(#linearGradient3216);fill-opacity:1;fill-rule:evenodd;stroke:none;stroke-width:1px;stroke-linecap:butt;stroke-linejoin:miter;stroke-opacity:1"
     d="M 92.045202,126.81445 C 92.045202,126.81445 96.99495,119.03628 96.641396,113.37942 C 96.731993,106.27735 91.938222,95.852474 87.095454,86.155808 C 88.493358,81.936756 93.812969,89.337788 101.59114,89.337788 C 110.46289,88.106678 113.91688,82.169131 116.08683,87.216468 C 113.96551,90.044895 108.1296,105.54646 108.30866,113.37942 C 108.50275,121.86985 111.49064,123.98602 113.25841,127.168 C 114.56605,129.52174 96.99495,130.70353 92.045202,126.81445 z"
     id="path3200"
     sodipodi:nodetypes="cccccssc" />
  <path
     style="fill:#999999;fill-rule:evenodd;stroke:none;stroke-width:1px;stroke-linecap:butt;stroke-linejoin:miter;stroke-opacity:1;fill-opacity:1"
     d="M 90.863221,88.984235 L 82.37794,70.953012 L 92.277435,88.984236 L 90.863221,88.984235 z"
     id="path3206"
     sodipodi:nodetypes="cccc" />
  <path
     style="fill:#999999;fill-rule:evenodd;stroke:none;stroke-width:1px;stroke-linecap:butt;stroke-linejoin:miter;stroke-opacity:1;fill-opacity:1"
     d="M 111.36932,88.277129 L 121.62237,69.892353 L 113.49064,87.923575 L 111.36932,88.277129 z"
     id="path3208"
     sodipodi:nodetypes="cccc" />
  <path
     style="fill:#000000;fill-opacity:1;fill-rule:evenodd;stroke:none;stroke-width:1px;stroke-linecap:butt;stroke-linejoin:miter;stroke-opacity:1"
     d="M 82.731494,70.124585 L 86.974134,65.881944 L 91.216775,71.892352 L 96.166522,66.235498 L 101.46982,72.245905 L 107.12668,66.235498 L 112.42998,71.538799 L 117.37973,66.235498 L 121.62237,70.831692 L 120.20815,73.306566 L 117.02617,69.771032 L 112.42998,74.720779 L 107.12668,69.063925 L 101.46982,75.427886 L 95.812969,70.124585 L 90.156115,75.074333 L 86.267027,69.771032 L 82.731494,74.367226 L 79.903066,72.953012 L 82.731494,70.124585 z"
     id="path3204" />
</svg>
